<?xml version="1.0" encoding="UTF-8" standalone="no"?>
<!DOCTYPE svg PUBLIC "-//W3C//DTD SVG 1.1//EN"
 "http://www.w3.org/Graphics/SVG/1.1/DTD/svg11.dtd">
<!-- Generated by graphviz version 2.43.0 (0)
 -->
<!-- Title: %3 Pages: 1 -->
<svg width="260pt" height="188pt"
 viewBox="0.00 0.00 260.18 188.00" xmlns="http://www.w3.org/2000/svg" xmlns:xlink="http://www.w3.org/1999/xlink">
<g id="graph0" class="graph" transform="scale(1 1) rotate(0) translate(4 184)">
<title>%3</title>
<polygon fill="white" stroke="transparent" points="-4,4 -4,-184 256.18,-184 256.18,4 -4,4"/>
<!-- containers/eks_spoke -->
<g id="node1" class="node">
<title>containers/eks_spoke</title>
<ellipse fill="none" stroke="black" cx="126.09" cy="-90" rx="109.38" ry="18"/>
<text text-anchor="middle" x="126.09" y="-86.3" font-family="Times,serif" font-size="14.00">containers/eks_spoke</text>
</g>
<!-- network/vpc -->
<g id="node2" class="node">
<title>network/vpc</title>
<ellipse fill="none" stroke="black" cx="126.09" cy="-18" rx="67.69" ry="18"/>
<text text-anchor="middle" x="126.09" y="-14.3" font-family="Times,serif" font-size="14.00">network/vpc</text>
</g>
<!-- containers/eks_spoke&#45;&gt;network/vpc -->
<g id="edge1" class="edge">
<title>containers/eks_spoke&#45;&gt;network/vpc</title>
<path fill="none" stroke="black" d="M126.09,-71.7C126.09,-63.98 126.09,-54.71 126.09,-46.11"/>
<polygon fill="black" stroke="black" points="129.59,-46.1 126.09,-36.1 122.59,-46.1 129.59,-46.1"/>
</g>
<!-- containers/gitops_bridge -->
<g id="node3" class="node">
<title>containers/gitops_bridge</title>
<ellipse fill="none" stroke="black" cx="126.09" cy="-162" rx="126.18" ry="18"/>
<text text-anchor="middle" x="126.09" y="-158.3" font-family="Times,serif" font-size="14.00">containers/gitops_bridge</text>
</g>
<!-- containers/gitops_bridge&#45;&gt;containers/eks_spoke -->
<g id="edge2" class="edge">
<title>containers/gitops_bridge&#45;&gt;containers/eks_spoke</title>
<path fill="none" stroke="black" d="M126.09,-143.7C126.09,-135.98 126.09,-126.71 126.09,-118.11"/>
<polygon fill="black" stroke="black" points="129.59,-118.1 126.09,-108.1 122.59,-118.1 129.59,-118.1"/>
</g>
</g>
</svg>
