<?xml version="1.0" encoding="UTF-8" standalone="no"?>
<!DOCTYPE svg PUBLIC "-//W3C//DTD SVG 1.1//EN"
 "http://www.w3.org/Graphics/SVG/1.1/DTD/svg11.dtd">
<!-- Generated by graphviz version 2.43.0 (0)
 -->
<!-- Title: %3 Pages: 1 -->
<svg width="402pt" height="188pt"
 viewBox="0.00 0.00 401.87 188.00" xmlns="http://www.w3.org/2000/svg" xmlns:xlink="http://www.w3.org/1999/xlink">
<g id="graph0" class="graph" transform="scale(1 1) rotate(0) translate(4 184)">
<title>%3</title>
<polygon fill="white" stroke="transparent" points="-4,4 -4,-184 397.87,-184 397.87,4 -4,4"/>
<!-- /infrastructure/containers/eks_spoke -->
<g id="node1" class="node">
<title>/infrastructure/containers/eks_spoke</title>
<ellipse fill="none" stroke="black" cx="196.93" cy="-90" rx="180.87" ry="18"/>
<text text-anchor="middle" x="196.93" y="-86.3" font-family="Times,serif" font-size="14.00">/infrastructure/containers/eks_spoke</text>
</g>
<!-- /infrastructure/network/vpc -->
<g id="node2" class="node">
<title>/infrastructure/network/vpc</title>
<ellipse fill="none" stroke="black" cx="196.93" cy="-18" rx="139.18" ry="18"/>
<text text-anchor="middle" x="196.93" y="-14.3" font-family="Times,serif" font-size="14.00">/infrastructure/network/vpc</text>
</g>
<!-- /infrastructure/containers/eks_spoke&#45;&gt;/infrastructure/network/vpc -->
<g id="edge1" class="edge">
<title>/infrastructure/containers/eks_spoke&#45;&gt;/infrastructure/network/vpc</title>
<path fill="none" stroke="black" d="M196.93,-71.7C196.93,-63.98 196.93,-54.71 196.93,-46.11"/>
<polygon fill="black" stroke="black" points="200.43,-46.1 196.93,-36.1 193.43,-46.1 200.43,-46.1"/>
</g>
<!-- /infrastructure/containers/gitops_bridge -->
<g id="node3" class="node">
<title>/infrastructure/containers/gitops_bridge</title>
<ellipse fill="none" stroke="black" cx="196.93" cy="-162" rx="196.87" ry="18"/>
<text text-anchor="middle" x="196.93" y="-158.3" font-family="Times,serif" font-size="14.00">/infrastructure/containers/gitops_bridge</text>
</g>
<!-- /infrastructure/containers/gitops_bridge&#45;&gt;/infrastructure/containers/eks_spoke -->
<g id="edge2" class="edge">
<title>/infrastructure/containers/gitops_bridge&#45;&gt;/infrastructure/containers/eks_spoke</title>
<path fill="none" stroke="black" d="M196.93,-143.7C196.93,-135.98 196.93,-126.71 196.93,-118.11"/>
<polygon fill="black" stroke="black" points="200.43,-118.1 196.93,-108.1 193.43,-118.1 200.43,-118.1"/>
</g>
</g>
</svg>
